<svg width="400" height="400" viewBox="0 0 440 440" fill="none" xmlns="http://www.w3.org/2000/svg">
<g filter="url(#filter0_d)">
<path fill-rule="evenodd" clip-rule="evenodd" d="M220 415C327.696 415 415 327.696 415 220C415 112.304 327.696 25 220 25C112.304 25 25 112.304 25 220C25 327.696 112.304 415 220 415ZM220 420C330.457 420 420 330.457 420 220C420 109.543 330.457 20 220 20C109.543 20 20 109.543 20 220C20 330.457 109.543 420 220 420ZM364.425 233C364.806 228.717 365 224.381 365 220C365 139.919 300.081 75 220 75C139.919 75 75 139.919 75 220C75 225.792 75.3396 231.505 76 237.119V215H96V197H116V220H136V233H155V252H175V246H195V281H212V257H232V270H251V238H271V215H291V238H311V197H331V215H351V233H364.425ZM220 370C302.843 370 370 302.843 370 220C370 137.157 302.843 70 220 70C137.157 70 70 137.157 70 220C70 302.843 137.157 370 220 370Z" fill="#00D515"/>
<path fill-rule="evenodd" clip-rule="evenodd" d="M220 415C327.696 415 415 327.696 415 220C415 112.304 327.696 25 220 25C112.304 25 25 112.304 25 220C25 327.696 112.304 415 220 415ZM220 420C330.457 420 420 330.457 420 220C420 109.543 330.457 20 220 20C109.543 20 20 109.543 20 220C20 330.457 109.543 420 220 420ZM364.425 233C364.806 228.717 365 224.381 365 220C365 139.919 300.081 75 220 75C139.919 75 75 139.919 75 220C75 225.792 75.3396 231.505 76 237.119V215H96V197H116V220H136V233H155V252H175V246H195V281H212V257H232V270H251V238H271V215H291V238H311V197H331V215H351V233H364.425ZM220 370C302.843 370 370 302.843 370 220C370 137.157 302.843 70 220 70C137.157 70 70 137.157 70 220C70 302.843 137.157 370 220 370Z" fill="url(#paint0_linear)"/>
<path d="M79.3239 140.431L62.0441 131.668L74.6124 143.824L72.7614 147.119L55.2923 143.69L72.3958 152.767L70.9326 155.372L50.108 144.324L52.3293 140.369L71.2672 144.196L57.5297 131.109L59.7509 127.154L80.787 137.826L79.3239 140.431Z" fill="#00D515"/>
<path d="M79.3239 140.431L62.0441 131.668L74.6124 143.824L72.7614 147.119L55.2923 143.69L72.3958 152.767L70.9326 155.372L50.108 144.324L52.3293 140.369L71.2672 144.196L57.5297 131.109L59.7509 127.154L80.787 137.826L79.3239 140.431Z" fill="url(#paint1_linear)"/>
<path d="M90.8182 113.25C92.8803 114.74 94.0667 116.396 94.3775 118.218C94.6688 120.026 94.0385 121.923 92.4866 123.909C90.9495 125.875 89.2395 126.992 87.3566 127.259C85.4886 127.507 83.5138 126.879 81.4323 125.375L68.3011 115.888L70.1855 113.477L83.6377 123.196C84.8827 124.096 86.0798 124.472 87.229 124.326C88.3734 124.147 89.3965 123.481 90.298 122.327C91.2144 121.155 91.5955 120.025 91.4412 118.937C91.2675 117.835 90.5582 116.835 89.3131 115.935L75.861 106.216L77.7454 103.805L90.8182 113.25Z" fill="#00D515"/>
<path d="M90.8182 113.25C92.8803 114.74 94.0667 116.396 94.3775 118.218C94.6688 120.026 94.0385 121.923 92.4866 123.909C90.9495 125.875 89.2395 126.992 87.3566 127.259C85.4886 127.507 83.5138 126.879 81.4323 125.375L68.3011 115.888L70.1855 113.477L83.6377 123.196C84.8827 124.096 86.0798 124.472 87.229 124.326C88.3734 124.147 89.3965 123.481 90.298 122.327C91.2144 121.155 91.5955 120.025 91.4412 118.937C91.2675 117.835 90.5582 116.835 89.3131 115.935L75.861 106.216L77.7454 103.805L90.8182 113.25Z" fill="url(#paint2_linear)"/>
<path d="M91.8451 88.1305C92.8017 87.2561 94.1857 86.251 95.997 85.1152L97.8432 87.0828C96.1204 88.1376 94.7542 89.1265 93.7444 90.0495C92.717 90.9886 92.1671 91.8648 92.0948 92.6781C92.0402 93.4753 92.4097 94.2747 93.2032 95.0764L93.8616 95.7417C94.2837 96.1681 94.6745 96.4607 95.034 96.6194C95.3944 96.7449 95.818 96.7638 96.3049 96.6762C96.7749 96.5715 97.4039 96.3377 98.1919 95.9748L101.448 94.5092C103.023 93.8167 104.371 93.5759 105.491 93.7869C106.628 93.9818 107.813 94.7018 109.046 95.947L109.527 96.4332C111.03 97.9513 111.692 99.5066 111.513 101.099C111.353 102.675 110.236 104.411 108.163 106.305C107.154 107.228 105.692 108.24 103.777 109.34L101.881 107.321C103.689 106.318 105.115 105.339 106.16 104.384C107.489 103.169 108.242 102.124 108.42 101.246C108.581 100.352 108.256 99.4955 107.446 98.6767L106.61 97.8324C106.019 97.2353 105.43 96.9129 104.843 96.8649C104.256 96.7837 103.508 96.9479 102.597 97.3577L98.9992 98.9894C97.3886 99.7143 96.0402 99.9883 94.9541 99.8114C93.8512 99.6174 92.675 98.8893 91.4257 97.627L91.1471 97.3456C89.6783 95.8616 88.9799 94.3718 89.052 92.8765C89.1249 91.3479 90.0559 89.7658 91.8451 88.1305Z" fill="#00D515"/>
<path d="M91.8451 88.1305C92.8017 87.2561 94.1857 86.251 95.997 85.1152L97.8432 87.0828C96.1204 88.1376 94.7542 89.1265 93.7444 90.0495C92.717 90.9886 92.1671 91.8648 92.0948 92.6781C92.0402 93.4753 92.4097 94.2747 93.2032 95.0764L93.8616 95.7417C94.2837 96.1681 94.6745 96.4607 95.034 96.6194C95.3944 96.7449 95.818 96.7638 96.3049 96.6762C96.7749 96.5715 97.4039 96.3377 98.1919 95.9748L101.448 94.5092C103.023 93.8167 104.371 93.5759 105.491 93.7869C106.628 93.9818 107.813 94.7018 109.046 95.947L109.527 96.4332C111.03 97.9513 111.692 99.5066 111.513 101.099C111.353 102.675 110.236 104.411 108.163 106.305C107.154 107.228 105.692 108.24 103.777 109.34L101.881 107.321C103.689 106.318 105.115 105.339 106.16 104.384C107.489 103.169 108.242 102.124 108.42 101.246C108.581 100.352 108.256 99.4955 107.446 98.6767L106.61 97.8324C106.019 97.2353 105.43 96.9129 104.843 96.8649C104.256 96.7837 103.508 96.9479 102.597 97.3577L98.9992 98.9894C97.3886 99.7143 96.0402 99.9883 94.9541 99.8114C93.8512 99.6174 92.675 98.8893 91.4257 97.627L91.1471 97.3456C89.6783 95.8616 88.9799 94.3718 89.052 92.8765C89.1249 91.3479 90.0559 89.7658 91.8451 88.1305Z" fill="url(#paint3_linear)"/>
<path d="M110.566 74.1L125.253 92.5474L122.784 94.3557L108.097 75.9084L110.566 74.1Z" fill="#00D515"/>
<path d="M110.566 74.1L125.253 92.5474L122.784 94.3557L108.097 75.9084L110.566 74.1Z" fill="url(#paint4_linear)"/>
<path d="M128.823 61.242C129.616 60.7443 130.524 60.2875 131.547 59.8716C132.577 59.4232 133.18 59.1578 133.356 59.0755L134.821 61.3413C132.816 62.1475 131.325 62.8569 130.349 63.4695C128.967 64.3373 128.161 65.2398 127.931 66.177C127.701 67.1143 128.027 68.2264 128.909 69.5134L134.727 78.0075C135.609 79.2945 136.534 80.0301 137.504 80.2144C138.48 80.3661 139.669 80.0017 141.071 79.1211C142.047 78.5086 143.321 77.4824 144.892 76.0425L146.52 78.2911C146.371 78.413 145.876 78.8368 145.036 79.5624C144.23 80.2951 143.431 80.9103 142.638 81.408C140.3 82.8756 138.301 83.437 136.641 83.0921C134.98 82.7473 133.445 81.5453 132.034 79.4861L126.439 71.3187C125.028 69.2596 124.489 67.4322 124.82 65.8367C125.152 64.2412 126.486 62.7096 128.823 61.242Z" fill="#00D515"/>
<path d="M128.823 61.242C129.616 60.7443 130.524 60.2875 131.547 59.8716C132.577 59.4232 133.18 59.1578 133.356 59.0755L134.821 61.3413C132.816 62.1475 131.325 62.8569 130.349 63.4695C128.967 64.3373 128.161 65.2398 127.931 66.177C127.701 67.1143 128.027 68.2264 128.909 69.5134L134.727 78.0075C135.609 79.2945 136.534 80.0301 137.504 80.2144C138.48 80.3661 139.669 80.0017 141.071 79.1211C142.047 78.5086 143.321 77.4824 144.892 76.0425L146.52 78.2911C146.371 78.413 145.876 78.8368 145.036 79.5624C144.23 80.2951 143.431 80.9103 142.638 81.408C140.3 82.8756 138.301 83.437 136.641 83.0921C134.98 82.7473 133.445 81.5453 132.034 79.4861L126.439 71.3187C125.028 69.2596 124.489 67.4322 124.82 65.8367C125.152 64.2412 126.486 62.7096 128.823 61.242Z" fill="url(#paint5_linear)"/>
<path d="M182.85 37.259C185.564 36.4519 187.737 36.4069 189.367 37.1241C191.013 37.8113 192.129 39.1697 192.713 41.1992L192.952 42.0294C193.577 44.1973 193.414 46.0609 192.465 47.6201C191.515 49.1793 189.741 50.3453 187.141 51.1182C186.106 51.426 184.975 51.6621 183.749 51.8264L186.459 61.2359L183.526 62.1079L176.93 39.2069C178.852 38.5102 180.825 37.8609 182.85 37.259ZM183.498 39.7703C182.486 40.0712 181.503 40.3884 180.551 40.7218L183.021 49.301C184.455 49.0751 185.54 48.8528 186.276 48.6339C189.589 47.649 190.823 45.6921 189.98 42.7631L189.81 42.175C189.432 40.8605 188.735 40.0034 187.721 39.6039C186.7 39.1813 185.293 39.2368 183.498 39.7703Z" fill="#00D515"/>
<path d="M182.85 37.259C185.564 36.4519 187.737 36.4069 189.367 37.1241C191.013 37.8113 192.129 39.1697 192.713 41.1992L192.952 42.0294C193.577 44.1973 193.414 46.0609 192.465 47.6201C191.515 49.1793 189.741 50.3453 187.141 51.1182C186.106 51.426 184.975 51.6621 183.749 51.8264L186.459 61.2359L183.526 62.1079L176.93 39.2069C178.852 38.5102 180.825 37.8609 182.85 37.259ZM183.498 39.7703C182.486 40.0712 181.503 40.3884 180.551 40.7218L183.021 49.301C184.455 49.0751 185.54 48.8528 186.276 48.6339C189.589 47.649 190.823 45.6921 189.98 42.7631L189.81 42.175C189.432 40.8605 188.735 40.0034 187.721 39.6039C186.7 39.1813 185.293 39.2368 183.498 39.7703Z" fill="url(#paint6_linear)"/>
<path d="M223.244 33.42V36.192H213.884V43.644H222.524V46.38H213.884V54.228H223.244V57H210.824V33.42H223.244Z" fill="#00D515"/>
<path d="M223.244 33.42V36.192H213.884V43.644H222.524V46.38H213.884V54.228H223.244V57H210.824V33.42H223.244Z" fill="url(#paint7_linear)"/>
<path d="M251.549 37.2797C254.284 38.0123 256.163 39.0867 257.184 40.503C258.205 41.9193 258.465 43.5915 257.965 45.5197L257.739 46.3909C257.389 47.7383 256.708 48.8353 255.695 49.6821C254.688 50.5056 253.435 50.9401 251.935 50.9858L255.117 63.0926L251.813 62.2079L248.851 50.8307C248.66 50.8043 248.286 50.7166 247.73 50.5676C246.802 50.3192 245.896 50.0392 245.01 49.7273L242.424 59.6934L239.468 58.9019L245.462 35.7986C248.082 36.4011 250.111 36.8947 251.549 37.2797ZM250.828 39.77C250.063 39.5651 249.049 39.3183 247.785 39.0295L245.651 47.2532C246.873 47.7047 247.901 48.0421 248.736 48.2656C252.074 49.1596 254.096 48.2476 254.801 45.5296L254.982 44.8327C255.307 43.5782 255.143 42.5403 254.488 41.719C253.833 40.8977 252.613 40.248 250.828 39.77Z" fill="#00D515"/>
<path d="M251.549 37.2797C254.284 38.0123 256.163 39.0867 257.184 40.503C258.205 41.9193 258.465 43.5915 257.965 45.5197L257.739 46.3909C257.389 47.7383 256.708 48.8353 255.695 49.6821C254.688 50.5056 253.435 50.9401 251.935 50.9858L255.117 63.0926L251.813 62.2079L248.851 50.8307C248.66 50.8043 248.286 50.7166 247.73 50.5676C246.802 50.3192 245.896 50.0392 245.01 49.7273L242.424 59.6934L239.468 58.9019L245.462 35.7986C248.082 36.4011 250.111 36.8947 251.549 37.2797ZM250.828 39.77C250.063 39.5651 249.049 39.3183 247.785 39.0295L245.651 47.2532C246.873 47.7047 247.901 48.0421 248.736 48.2656C252.074 49.1596 254.096 48.2476 254.801 45.5296L254.982 44.8327C255.307 43.5782 255.143 42.5403 254.488 41.719C253.833 40.8977 252.613 40.248 250.828 39.77Z" fill="url(#paint8_linear)"/>
<path d="M303.342 82.2422L314.702 66.5682L300.454 77.4429L297.287 75.3789L303.151 59.0395L291.489 74.5169L288.986 72.8854L303.182 54.0403L306.982 56.5171L300.511 74.2204L315.879 62.316L319.679 64.7928L305.845 83.8738L303.342 82.2422Z" fill="#00D515"/>
<path d="M303.342 82.2422L314.702 66.5682L300.454 77.4429L297.287 75.3789L303.151 59.0395L291.489 74.5169L288.986 72.8854L303.182 54.0403L306.982 56.5171L300.511 74.2204L315.879 62.316L319.679 64.7928L305.845 83.8738L303.342 82.2422Z" fill="url(#paint9_linear)"/>
<path d="M335.2 76.9155L319.125 94.1672L316.752 92.235L332.827 74.9833L335.2 76.9155Z" fill="#00D515"/>
<path d="M335.2 76.9155L319.125 94.1672L316.752 92.235L332.827 74.9833L335.2 76.9155Z" fill="url(#paint10_linear)"/>
<path d="M335.248 109.001L344.804 90.4385L329.767 103.485L327.636 101.34L345.447 85.8868L348.897 89.3601L339.239 107.821L354.276 94.7743L356.408 96.9196L338.597 112.373L335.248 109.001Z" fill="#00D515"/>
<path d="M335.248 109.001L344.804 90.4385L329.767 103.485L327.636 101.34L345.447 85.8868L348.897 89.3601L339.239 107.821L354.276 94.7743L356.408 96.9196L338.597 112.373L335.248 109.001Z" fill="url(#paint11_linear)"/>
<path d="M363.049 129.077C361.037 130.634 359.059 131.346 357.117 131.214C355.193 131.068 353.395 130.052 351.721 128.168C350.064 126.302 349.319 124.471 349.486 122.676C349.67 120.9 350.777 119.226 352.808 117.654L365.621 107.742L367.653 110.03L354.527 120.185C353.312 121.124 352.645 122.14 352.525 123.232C352.441 124.326 352.885 125.421 353.857 126.516C354.845 127.628 355.915 128.238 357.067 128.346C358.239 128.439 359.432 128.015 360.647 127.075L373.773 116.92L375.805 119.208L363.049 129.077Z" fill="#00D515"/>
<path d="M363.049 129.077C361.037 130.634 359.059 131.346 357.117 131.214C355.193 131.068 353.395 130.052 351.721 128.168C350.064 126.302 349.319 124.471 349.486 122.676C349.67 120.9 350.777 119.226 352.808 117.654L365.621 107.742L367.653 110.03L354.527 120.185C353.312 121.124 352.645 122.14 352.525 123.232C352.441 124.326 352.885 125.421 353.857 126.516C354.845 127.628 355.915 128.238 357.067 128.346C358.239 128.439 359.432 128.015 360.647 127.075L373.773 116.92L375.805 119.208L363.049 129.077Z" fill="url(#paint12_linear)"/>
<path d="M390.211 145.138L387.691 146.293L384.447 140.271L365.534 148.946L364.082 146.252L382.996 137.577L379.752 131.555L382.272 130.4L390.211 145.138Z" fill="#00D515"/>
<path d="M390.211 145.138L387.691 146.293L384.447 140.271L365.534 148.946L364.082 146.252L382.996 137.577L379.752 131.555L382.272 130.4L390.211 145.138Z" fill="url(#paint13_linear)"/>
<path d="M398.839 166.936L396.187 167.742L392.949 158.96L385.819 161.127L388.808 169.234L386.19 170.029L383.202 161.922L375.693 164.205L378.93 172.987L376.278 173.793L371.982 162.14L394.543 155.282L398.839 166.936Z" fill="#00D515"/>
<path d="M398.839 166.936L396.187 167.742L392.949 158.96L385.819 161.127L388.808 169.234L386.19 170.029L383.202 161.922L375.693 164.205L378.93 172.987L376.278 173.793L371.982 162.14L394.543 155.282L398.839 166.936Z" fill="url(#paint14_linear)"/>
</g>
<defs>
<filter id="filter0_d" x="0" y="0" width="440" height="440" filterUnits="userSpaceOnUse" color-interpolation-filters="sRGB">
<feFlood flood-opacity="0" result="BackgroundImageFix"/>
<feColorMatrix in="SourceAlpha" type="matrix" values="0 0 0 0 0 0 0 0 0 0 0 0 0 0 0 0 0 0 127 0"/>
<feOffset/>
<feGaussianBlur stdDeviation="10"/>
<feColorMatrix type="matrix" values="0 0 0 0 0.453624 0 0 0 0 1 0 0 0 0 0.196507 0 0 0 0.89 0"/>
<feBlend mode="normal" in2="BackgroundImageFix" result="effect1_dropShadow"/>
<feBlend mode="normal" in="SourceGraphic" in2="effect1_dropShadow" result="shape"/>
</filter>
<linearGradient id="paint0_linear" x1="220" y1="20" x2="220" y2="420" gradientUnits="userSpaceOnUse">
<stop stop-color="#00A310"/>
<stop offset="1" stop-color="#519E59" stop-opacity="0"/>
</linearGradient>
<linearGradient id="paint1_linear" x1="50.1143" y1="131.21" x2="94.94" y2="156.385" gradientUnits="userSpaceOnUse">
<stop stop-color="#00A310"/>
<stop offset="1" stop-color="#519E59" stop-opacity="0"/>
</linearGradient>
<linearGradient id="paint2_linear" x1="68.9298" y1="104.666" x2="109.252" y2="136.182" gradientUnits="userSpaceOnUse">
<stop stop-color="#00A310"/>
<stop offset="1" stop-color="#519E59" stop-opacity="0"/>
</linearGradient>
<linearGradient id="paint3_linear" x1="88.7348" y1="82.8673" x2="123.131" y2="120.499" gradientUnits="userSpaceOnUse">
<stop stop-color="#00A310"/>
<stop offset="1" stop-color="#519E59" stop-opacity="0"/>
</linearGradient>
<linearGradient id="paint4_linear" x1="106.79" y1="68.9142" x2="132.591" y2="104.134" gradientUnits="userSpaceOnUse">
<stop stop-color="#00A310"/>
<stop offset="1" stop-color="#519E59" stop-opacity="0"/>
</linearGradient>
<linearGradient id="paint5_linear" x1="125.585" y1="56.2102" x2="152.545" y2="99.1482" gradientUnits="userSpaceOnUse">
<stop stop-color="#00A310"/>
<stop offset="1" stop-color="#519E59" stop-opacity="0"/>
</linearGradient>
<linearGradient id="paint6_linear" x1="183.172" y1="30.9163" x2="197.244" y2="78.2456" gradientUnits="userSpaceOnUse">
<stop stop-color="#00A310"/>
<stop offset="1" stop-color="#519E59" stop-opacity="0"/>
</linearGradient>
<linearGradient id="paint7_linear" x1="218.66" y1="27" x2="218.66" y2="76.4397" gradientUnits="userSpaceOnUse">
<stop stop-color="#00A310"/>
<stop offset="1" stop-color="#519E59" stop-opacity="0"/>
</linearGradient>
<linearGradient id="paint8_linear" x1="255.522" y1="32.1449" x2="242.746" y2="79.8517" gradientUnits="userSpaceOnUse">
<stop stop-color="#00A310"/>
<stop offset="1" stop-color="#519E59" stop-opacity="0"/>
</linearGradient>
<linearGradient id="paint9_linear" x1="316.757" y1="55.2386" x2="292.502" y2="92.4526" gradientUnits="userSpaceOnUse">
<stop stop-color="#00A310"/>
<stop offset="1" stop-color="#519E59" stop-opacity="0"/>
</linearGradient>
<linearGradient id="paint10_linear" x1="339.791" y1="72.393" x2="311.443" y2="107.204" gradientUnits="userSpaceOnUse">
<stop stop-color="#00A310"/>
<stop offset="1" stop-color="#519E59" stop-opacity="0"/>
</linearGradient>
<linearGradient id="paint11_linear" x1="357.045" y1="88.4732" x2="325.103" y2="120.208" gradientUnits="userSpaceOnUse">
<stop stop-color="#00A310"/>
<stop offset="1" stop-color="#519E59" stop-opacity="0"/>
</linearGradient>
<linearGradient id="paint12_linear" x1="376.988" y1="110.895" x2="343.193" y2="140.908" gradientUnits="userSpaceOnUse">
<stop stop-color="#00A310"/>
<stop offset="1" stop-color="#519E59" stop-opacity="0"/>
</linearGradient>
<linearGradient id="paint13_linear" x1="392.934" y1="136.683" x2="352.73" y2="158.34" gradientUnits="userSpaceOnUse">
<stop stop-color="#00A310"/>
<stop offset="1" stop-color="#519E59" stop-opacity="0"/>
</linearGradient>
<linearGradient id="paint14_linear" x1="403.396" y1="160.768" x2="360.262" y2="176.667" gradientUnits="userSpaceOnUse">
<stop stop-color="#00A310"/>
<stop offset="1" stop-color="#519E59" stop-opacity="0"/>
</linearGradient>
</defs>
</svg>
